<?xml version='1.0' encoding='utf-8'?>
<svg xmlns="http://www.w3.org/2000/svg" enable-background="new 0 0 2000 899" version="1.1" viewBox="0 0 2e3 899"> <g stroke-width=".3"> <path d="m1405.3 0h4.25c3.01 1.09 6.0699 2.08 9.27 2.47 1.5699 0.28 3.13 0.63 4.73 0.96 13.39 3.83 26.95 7.09 40.13 11.66 3.21 2.15 6.71 3.83 10.69 3.68 20.88 8.51 41.34 20.19 55.41 38.21 2.49 3.56 5.4399 6.79 7.65 10.55 1.86 2.62 2.02 5.96 3.5399 8.75 0.49-1.4 1.03-2.8 1.4601-4.22-0.53 3.56 0.75 6.94 2.2999 10.08 3.11 6.04 4.16 12.81 6.13 19.25 1.3401 4.22 1.13 8.77 2.52 12.97 1.4401 15.47 1.89 31.11 0.22 46.58-0.9299 8.78-9.7999 15.64-18.52 14.6-8.6901-0.58-15.92-8.9-15.44-17.56 2.09-24.33 1.72-50.69-11.18-72.27-2.71-4.83-6.2999-9.09-10.41-12.77 1.8199 4.37 3.61 8.75 5.2999 13.18 9.9801 27.56 11.85 58 5.6001 86.61-1.5901 4.87-3.05 9.79-3.8201 14.86-2.02 6.74-7.75 12.74-15.11 13.02-8.16 1.2-16.2-4.59-18.3-12.41-0.4099-3.35-0.2699-6.73 0.04-10.08-4.91 4.24-11.57 6.52-17.96 4.55-2.98-1.22-5.5701-3.14-7.8-5.41-2.6799 4.21-6.28 8.22-11.37 9.33-9.87 3.34-20.46-4.79-21.7-14.73-1.99 3.06-4.62 5.61-7.5801 7.72-3.3099 1.14-6.8099 2.33-10.34 1.68-8.25-1-15.39-8.82-14.7-17.28 0.98-23.93-8.7101-46.37-17.83-67.94 1.7101 20.49 10.45 39.55 13.71 59.77 2.2699 10.79 1.6 21.88 1.2999 32.82-1.3199 3.65-2.83 7.39-5.95 9.88-5.4401 5.08-14.39 5.55-20.5 1.44-4.8-3.31-8.26-8.99-7.5701-14.97 0.53-9.36 0.52-18.82-1.71-27.98-4.1899-18.21-10.76-35.9-13.06-54.52-0.8501-7.47-1.12-14.98-1.38-22.48-1.66 7.79-3.12 15.7-2.9601 23.7-0.14 10.1-0.1 20.2 0.0601 30.3 0.0699 16.7 0.84 33.58-2.64 50.02-1.71 8.49-4.92 16.73-9.95 23.8-2.3601 3.16-5.9801 5.28-9.77 6.19-7.64 1.83-16.17-2.5-19.26-9.7-1.53-3.09-1.38-6.61-1.4-9.96-4.33 0.29-8.9401 1.07-13.05-0.72-6.11-2.51-10.47-9-10.14-15.64-0.09-10.32 1.77-20.54 3.8-30.61 4.45-20.17 8.1901-40.53 13.92-60.41 0.8199-2.79 1.5599-5.61 2.0699-8.47 2.14-8.71 5.11-17.32 9.38-25.22 3.5601-6.54 11.55-10.1 18.79-8.24 1.98 0.82 3.22-1.23 4.63-2.24 6.35-5.98 14.34-10.17 22.86-12.05 1.9299-0.57 4.5-0.66 5.21-2.97 1.84-3.95 4.9301-7.33 9.03-8.97 3.4-1.81 7.34-0.91 10.99-1.58 2.33-1.72 4.34-3.88 6.85-5.39 4.5-2.68 7.97-7.79 13.75-7.67 5.51-0.25 11.03-0.29 16.54-0.54 3.1406-1.07 5.9106-3.14 9.2706-3.63m-15.06 73.11c3.9 11.11 8.9601 21.76 12.88 32.86 6.1801 16.07 10.25 32.97 11.38 50.17 0.53-9.02 0.49-18.2-1.41-27.07-3.67-19.97-11.59-39.08-22.85-55.96m47.05 15.86c2.84 9.39 5.9399 18.74 8.4 28.22 0.29-9.98-3.4-19.72-8.4-28.22z" fill="#D5A401" stroke="#D5A401"/> <path d="m1463.7 15.09c0.72 0.04 2.15 0.11 2.87 0.15 2.73 0.85 5.37 2.02 7.8199 3.53-3.9799 0.15-7.4799-1.53-10.69-3.68z" fill="#E1CC77" stroke="#E1CC77"/> <path d="m1128.9 56.56c11.59-2.01 23.39-1.34 35.09-1.49 10.17-0.04 20.43 0.14 30.39 2.41 21.46 3.91 42.08 12.04 60.44 23.81-4.26 16.44-9.9701 32.45-14.79 48.73-0.77 2.14-1.13 4.57-2.67 6.31-1.2799 0.47-2.6599 0.27-3.95 0.23-12.9-3.31-26.03-6.65-39.43-6.41-6.6499 0.04-13.31-0.21-19.95 0.22-8.22 1.02-16.26 3.88-23.14 8.52-8.17 5.73-14.27 14.03-18.25 23.1-5.36 11.74-8.09 24.45-10.19 37.11-4.02 26.47-4.88 53.25-7.3401 79.87-2.52 25.28-5.4299 51.07-15.54 74.63-9.6801 21.78-23.98 41.43-41.26 57.8-20.78 19.58-47.24 34.87-76.23 36.71-13.36 1-26.94-1.48-39.23-6.77-14.68-6.54-28.07-15.64-40.64-25.58-3.11-2.39-7.77-1.3-10.54-4.34-3.03-2.25-3.21-6.25-4.88-9.31-4.92-5.46-10.87-10.31-14.1-17.05-0.67-3.33-0.7-7.15 1.45-9.97 2.36-3.47 6.63-5.41 10.81-4.8 4.14 0.04 7.01 3.38 9.35 6.38 3.53 4.67 7.98 8.52 12.03 12.72 3.48 5.12 10.39 3.48 15.69 3.88 16.86-0.42 34.94-2.05 49.11-12.12 11.68-8.22 17.4-22.39 18.99-36.17 2.6801-18.94 0.06-38.05-2.19-56.88-2.64-18.36-5.47-36.7-7.44-55.14-0.6-9.97-0.21-19.97-0.28-29.94-0.08-11.94 4.19-23.22 6.83-34.69 11.01-32.42 33.07-60.71 61.2-80.09 23.96-16.62 51.88-27.28 80.66-31.68m-64.79 48.53c-0.49 0.25-1.48 0.74-1.98 0.99-3.29 3.14-7.26 5.43-10.64 8.46-12.22 9.94-22.64 22.07-30.83 35.51-0.79 1.12-1.17 2.43-1.54 3.72-0.1-0.37-0.31-1.11-0.41-1.47-0.64 3.27-2.81 5.93-4.07 8.96-8.24 17.31-13.58 36.41-12.9 55.7 0.73 9.29 1.05 18.63 2.73 27.8 0.49 6.47 1.65 12.88 2.58 19.31 0.3799 4.3 1.53 8.49 1.93 12.8 0.52-6.74 0.57-13.56 0.25-20.32 0.63-17.66 2.69-35.28 6.46-52.56 7.1-31.62 20.9-61.96 41.55-87.06 4.02-5.32 9.05-9.74 13.16-14.95-2.27 0.65-4.5 1.55-6.29 3.11m40.98 55.96c-7.8899 22.75-9.7599 47.03-11.14 70.89-0.78 11.65-1.5701 23.33-1.67 35.02-0.61 9.65-1.29 19.28-1.92 28.93 1.9-17.13 3.89-34.31 4.64-51.51 2.54-28.68 4.1901-58.03 14.3-85.29 5.28-13.58 13.03-26.61 24.44-35.92-14.12 8.26-23.36 22.73-28.65 37.88m-46.2 37.57c-3.34 10.79-4.53 22.12-4.53 33.38-0.26 18.67 0.3301 37.33 0.39 56 0.36 4.36 0.6801 8.71 0.53 13.09l-0.52 0.83c0 18.99-0.88 38.18-5.4399 56.67 0.49-0.02 1.48-0.06 1.98-0.08 8.13-14.63 12.07-31.13 14.4-47.59 6.4399-46.77 2.71-94.58 13.16-140.86 1.38-4.7 2.4601-9.48 4.0901-14.09 1.12-3.47 2.8999-6.81 2.9099-10.54-12.61 15.56-21.19 34.11-26.97 53.19m-39.1 175.68c-2.84 2.99-5.24 6.36-8.25 9.17-1.37 1.42-3.11 2.64-3.64 4.64 5.6-2.79 8.7-8.69 11.89-13.81m-2.73 35.72c-12.91 8.52-28.75 11.37-44.01 10.77-7.4301 0.32-14.72-1.36-22.12-1.39 0.6801 0.47 2.06 1.41 2.75 1.88 13.48 5.58 28.77 5.23 42.62 1.14 11.44-3.49 22.46-8.76 31.86-16.22-3.8601 0.7-7.8101 1.59-11.1 3.82z" fill="#D5A401" stroke="#D5A401"/> <path d="m1529.8 56.98c6.86 3.45 14.13 6.31 20.39 10.83-2.03 1.04-4.02 2.06-5.9601 3.2-0.4399 0.26-1.33 0.78-1.7799 1.05-0.4301 1.42-0.9701 2.82-1.4601 4.22-1.5199-2.79-1.6799-6.13-3.5399-8.75-2.21-3.76-5.16-6.99-7.65-10.55z" fill="#DA8960" stroke="#DA8960"/> <path d="m1549.5 68.53c9.13-3 17.22-8.44 26.26-11.7 1.3101 5.86 2.59 11.73 4.23 17.51 0.54 4.68 1.9401 9.19 3.12 13.74 0.8301 2.99-0.09 6.54 2.26 8.99 0.1 2.97 0.4601 5.94 1.77 8.65 2.71 9.43 4.24 19.17 7.0701 28.57 1.2599 8 3.9399 15.71 5.09 23.75-15.62-14.21-30.55-29.18-45.91-43.68-1.39-4.2-1.1799-8.75-2.52-12.97-1.97-6.44-3.02-13.21-6.13-19.25-1.5499-3.14-2.83-6.52-2.2999-10.08 0.45-0.27 1.34-0.79 1.7799-1.05 1.6799-0.96 3.4299-1.82 5.2799-2.48z" fill="#DB38B9" stroke="#DB38B9"/> <path d="m1260.4 68.95c5.24 2.61 10.25 5.64 15.43 8.38-0.47 5.26-2.2899 10.19-4.01 15.12-1.01 8.69-4.02 16.93-5.7899 25.46-2.54 9.49-3.2201 19.5-6.38 28.77-5.16 4.68-11.37 8.02-17.07 11.97-1.48 0.97-2.5 2.44-3.5499 3.81-1.79 1.45-3.62 2.87-5.04 4.69-1.28 0.21-2.53 0.42-3.77 0.64 0.11-2.16 0.04-4.37 0.66-6.46 2.77-7.29 5.1899-14.72 7.08-22.28 3.1901-3.69 3.39-8.84 5.13-13.23 3.34-9.16 5.65-18.64 8.88-27.84 1.23-5.31 3.61-10.31 4.45-15.72 0.97-4.53 2.68-8.86 3.98-13.31z" fill="#DB38B9" stroke="#DB38B9"/> <path d="m1271.8 92.45c1.7201-4.93 3.54-9.86 4.01-15.12 0.54 0.29 1.6 0.87 2.13 1.17-0.51 2.86-1.25 5.68-2.0699 8.47-5.73 19.88-9.4701 40.24-13.92 60.41-8.05 4.39-15.06 10.41-22.94 15.08 1.0499-1.37 2.0699-2.84 3.5499-3.81 5.7001-3.95 11.91-7.29 17.07-11.97 3.1599-9.27 3.84-19.28 6.38-28.77 1.7697-8.53 4.7798-16.77 5.7898-25.46z" fill="#D24977" stroke="#D24977"/> <path d="m1254.8 81.29c0.4099 0.25 1.23 0.73 1.6399 0.97-0.84 5.41-3.22 10.41-4.45 15.72-3.23 9.2-5.54 18.68-8.88 27.84-1.74 4.39-1.9399 9.54-5.13 13.23-1.89 7.56-4.3099 14.99-7.08 22.28-0.62 2.09-0.55 4.3-0.66 6.46 1.24-0.22 2.49-0.43 3.77-0.64-7.34 14.52-14.39 29.27-18.93 44.94-13.61 44.14-13.26 92.53 1.3401 136.38 10.42 31.7 28 61.01 51 85.18 18.2 19.19 39.88 35.02 63.56 46.78-4.36 4.07-8.6699 8.22-12.68 12.63-35.24-18.2-65.69-45.47-87.99-78.23-20.58-30.12-34.32-64.92-39.65-101.01-6.61-44.66-0.5-91.12 17.58-132.5 6.66-15.82 15.65-30.51 25.15-44.76 1.29 0.04 2.67 0.24 3.95-0.23 1.54-1.74 1.9-4.17 2.67-6.31 4.8201-16.28 10.53-32.29 14.79-48.73z" fill="#DE885D" stroke="#DE885D"/> <path d="m1606.8 128.42c3.74-1.28 7.8501-1.67 11.22-3.91 16.76 21.26 30.7 44.86 39.95 70.35 13.98 37.94 18.09 79.38 12.08 119.34-5.4099 36.59-19.48 71.84-40.53 102.24-20.33 29.05-46.92 53.84-77.77 71.4-3.39-4.62-6.54-9.46-10.58-13.55 43.22-24.31 78.05-63.29 97.04-109.13 16.74-40.19 21.8-85.27 13.68-128.1-6.5901-35.78-22.18-69.81-44.68-98.38-1.95-2.62-4-5.21-6.66-7.15 1.8-0.6 3.66-1.03 5.53-1.46 0.2199-0.55 0.4598-1.1 0.7199-1.65z" fill="#DE885D" stroke="#DE885D"/> <path d="m1986 304.57c-6.9099 1.49-8.6201 9.1-12.36 14.04-3.0103 3.93-5.4302 8.5-9.2803 11.66-12.08 3.48-24.81 4.71-37.37 4.35-7.8699-0.04-15.72-1.62-22.95-4.72-9.52-4.19-17.02-12.16-21.42-21.5-7.05-14.74-9.3401-31.22-10.49-47.36-0.9097-7.98-0.3298-16.03-1.3098-24-0.4202-24.03 0.0999-48.2-3.53-72.02-2.51-17.42-9.5698-33.84-18.36-48.96-6.29-10.67-13.94-20.5-22.43-29.51-2.9299-3.1001-6.3599-5.73-8.8901-9.2001-0.0698 0.38-0.21 1.14-0.2798 1.52-0.3799-0.73-0.74-1.4601-1.0801-2.1901-0.3799-0.0999-1.1401-0.2899-1.52-0.3899 0.1802-0.0801 0.54-0.25 0.7202-0.3301-5.1902-3.58-9.9102-7.8-15.2-11.22-25.36-16.74-55.04-26.76-85.29-29.34-13.3-0.4301-26.63-0.5699-39.92 0.16-23.19 2.4199-46.04 8.8999-66.72 19.74-10.04 5.34-19.97 11.27-28.32 19.04 0.54 4.6801 1.9401 9.1901 3.12 13.74 0.8301 2.99-0.09 6.5399 2.26 8.99 0.1 2.97 0.4601 5.9399 1.77 8.6499 2.71 9.4301 4.24 19.17 7.0701 28.57 2.21-0.71 4.33-1.6801 6.3999-2.76 1.8-0.6001 3.66-1.03 5.53-1.46 0.22-0.55 0.46-1.1001 0.72-1.6501 3.74-1.2799 7.8501-1.6699 11.22-3.9099 7.5699-3.51 15.72-5.53 23.77-7.61 12.18-2.5699 25.06-3.85 37.18-0.2301 10.59 2.9801 19.51 10.19 26.05 18.88 5.6 6.74 9.33 14.75 12.85 22.71 7.87 19.18 13.01 39.36 17.55 59.54 5.7201 24.45 11.27 49.03 19.95 72.64 5.64 16.18 13.72 31.52 24.48 44.88 21.61 26.85 50.63 48.56 83.94 58.33 9.6301 1.91 19.32 4.08 29.2 3.87 12.2 0.1 24.2-2.8199 35.52-7.22 13.21-5.81 24.34-15.31 34.84-25.02 4.3101-4.01 8.2402-8.41 12.21-12.75 2.5-2.88 7.0503-2.48 9.4702-5.52 2.71-2.67 2.96-6.63 3.48-10.18 4.27-6.04 8.8599-12.07 11.46-19.06v-5.0099c-2.03-5.64-7.96-9.8-14.04-8.19zm-237.03-124.56c-5.29-18.39-11.72-36.73-22.16-52.9-5.02-7.5-10.95-14.45-17.93-20.19-3-2.5399-6.63-4.1799-9.6-6.75 2.53 1.8901 5.6801 2.6101 8.34 4.29 7.53 4.41 14.08 10.43 19.29 17.41 1.08 1.22 1.8 3.6 3.87 2.5399-0.26 0.3401-0.77 1-1.03 1.3301 17.39 27.08 23.51 59.28 30.28 90.23 1.23 7.15 3.64 14.17 3.76 21.46-5.34-19-9.1899-38.46-14.82-57.42zm60.76 125.21c-9.1001-16.97-14.2-35.68-18.8-54.27-5.0103-20.84-8.96-41.91-13.55-62.85-3.0898-10.58-5.5298-21.35-8.8599-31.86-3.7-10.53-7.5699-21.03-12.81-30.91-1.4801-3.25-3.87-6.1001-4.62-9.6501 7.2999 5.3601 12.74 12.81 18.31 19.86 4.8901 6.45 9.1702 13.35 13.03 20.44 0.0898 3.6799 1.73 7.87 4.9199 9.88 4.52 9.51 6.99 19.83 8.8501 30.15 4.5498 24.42 6.7197 49.22 11.39 73.62 3.0398 17.92 7.9199 35.5 14.35 52.5-5.1299-4.78-8.8101-10.84-12.21-16.91zm-29.56-217.01c0.2261-0.0726 0.4272-0.0796 0.6077-0.0472-0.1805-0.0324-0.3816-0.0253-0.6077 0.0472zm67.43 142.73c-1.1699-9.58-3.5901-18.94-5.0901-28.46l-0.22-0.02c-8.6001-38.88-25.96-76.39-53.09-105.82-1.6267-2.4986-4.142-4.2131-5.9456-6.5163-0.9901-1.2644-2.1046-2.4311-3.4387-3.325-4.2771-2.8659-7.6514-7.0031-11.826-10.059-4.2-2.28-7.87-5.95-11.99-8.6 6.2101 1.15 11.79 4.2 17.26 7.23 13.59 7.36 26.4 16.37 37.04 27.67 14.07 13.97 23.98 31.6 30.99 50.01l0.01 0.72c4.53 11.48 4.78 24.05 5.97 36.18 0.55 13.66 0.73 27.33 0.3301 40.99zm19.61 111.09c-5.6699-1.24-9.9399-6.26-13.14-10.84 3.9099 4.2 9.2 6.73 13.14 10.84zm41.87 30.99c-14.85 3.35-30.53 1.54-44.81-3.44-5.26-1.61-10.07-4.3199-15.23-6.15 4.01 0.14 8.2-0.02 11.97 1.65 19.03 8.6 40.96 6.25 60.44 0.42 3.5-1.04 6.9697-2.25 10.49-3.28-6.9498 4.85-14.49 9.04-22.86 10.8z" fill="#D5A401" stroke="#D5A401"/> <g fill="#FEE7C5" stroke="#FEE7C5"> <path d="m1414.5 156.14c0.53-9.02 0.49-18.2-1.41-27.07-3.67-19.97-11.59-39.08-22.85-55.96 3.9 11.11 8.9601 21.76 12.88 32.86 6.18 16.07 10.25 32.97 11.38 50.17z"/> <path d="m1651.9 237.06c-6.5901-35.78-22.18-69.81-44.68-98.38-1.95-2.6199-4-5.21-6.66-7.1499-2.0699 1.08-4.1899 2.05-6.3999 2.76 1.2599 8 3.9399 15.71 5.09 23.75-15.62-14.21-30.55-29.18-45.91-43.68 1.4401 15.47 1.89 31.11 0.22 46.58-0.9299 8.78-9.7999 15.64-18.52 14.6-8.6901-0.5801-15.92-8.9-15.44-17.56 2.09-24.33 1.72-50.69-11.18-72.27-2.71-4.83-6.2999-9.09-10.41-12.77 1.8199 4.3701 3.61 8.75 5.2999 13.18 9.9801 27.56 11.85 58 5.6001 86.61-1.5901 4.87-3.05 9.79-3.8201 14.86-2.02 6.7401-7.75 12.74-15.11 13.02-8.16 1.2001-16.2-4.59-18.3-12.41-0.4099-3.35-0.2699-6.73 0.04-10.08-4.91 4.24-11.57 6.52-17.96 4.5499-2.98-1.22-5.5701-3.1399-7.8-5.4099-2.6799 4.21-6.28 8.22-11.37 9.33-9.87 3.34-20.46-4.7899-21.7-14.73-1.99 3.0599-4.62 5.61-7.5801 7.7201-3.3099 1.1399-6.8099 2.3298-10.34 1.6799-8.25-1-15.39-8.8201-14.7-17.28 0.98-23.93-8.7101-46.37-17.83-67.94 1.7101 20.49 10.45 39.55 13.71 59.77 2.2699 10.79 1.6 21.88 1.2999 32.82-1.3199 3.65-2.83 7.39-5.95 9.88-5.4401 5.08-14.39 5.55-20.5 1.4399-4.8-3.3099-8.26-8.99-7.5701-14.97 0.53-9.36 0.52-18.82-1.71-27.98-4.1899-18.21-10.76-35.9-13.06-54.52-0.8501-7.47-1.12-14.98-1.38-22.48-1.66 7.79-3.12 15.7-2.9601 23.7-0.14 10.1-0.1 20.2 0.0601 30.3 0.0699 16.7 0.84 33.58-2.64 50.02-1.71 8.49-4.92 16.73-9.95 23.8-2.3601 3.1599-5.9801 5.2799-9.77 6.1899-7.64 1.83-16.17-2.5-19.26-9.7-1.53-3.0901-1.38-6.6101-1.4-9.9601-4.33 0.29-8.9401 1.0699-13.05-0.72-6.11-2.51-10.47-9-10.14-15.64-0.09-10.32 1.77-20.54 3.8-30.61-8.05 4.39-15.06 10.41-22.94 15.08-1.79 1.45-3.62 2.8701-5.04 4.6899-7.34 14.52-14.39 29.27-18.93 44.94-13.61 44.14-13.26 92.53 1.3401 136.38 10.42 31.7 28 61.01 51 85.18 18.2 19.19 39.88 35.02 63.56 46.78 31.07 15.04 65.5 23.1 100.04 23.03 38.44-0.03 76.71-10.32 110.18-29.17 43.22-24.31 78.05-63.29 97.04-109.13 16.74-40.19 21.8-85.27 13.68-128.1zm-233.5 7.61c3.7999-13.88 13.72-27.02 28.02-31.07 7.1001-1.72 15.08-1.2799 21.6 2.33 12.68 5.66 20.01 19 22.99 32.04 0.4099 6.68 2.4 13.38 0.5499 20.02 0.12 6.23-2.49 11.94-5.0599 17.46-4.25 8.3199-10.67 15.96-19.45 19.65-5.23 2.78-11.29 2.45-17.01 2.22-7.04-0.38-13.33-4.3-18.36-8.98-8.2899-7.95-13.64-18.89-14.93-30.28 0.0499-7.81-0.86-15.85 1.65-23.39zm-127.99-3.31c1.84-5.33 6.08-9.16 9.48-13.49 4.5499-3.6901 9.65-7.0699 15.41-8.5 7.6801-1.35 16.05-1.08 22.77 3.33 2.7101 2 5.7101 3.6301 8.3101 5.8 1.59 2.13 3.08 4.35 4.9199 6.3 12.13 17.76 12.59 42.65 1.2101 60.9-4.13 6.39-9.6801 11.98-16.71 15.07-5.5599 3.8-12.58 2.4901-18.89 2.45-9.64-1.54-17.72-8.2-23.17-16.03-10.86-16.27-12.03-38.35-3.33-55.83zm279.04 113.6c-16.55 34.89-45.37 63.71-80.13 80.49-38.49 19-84.18 23.46-125.37 11.03-33.58-9.81-63.53-31.16-84.26-59.28-15.74-20.94-26.49-45.28-33.38-70.46-1.22-4.65-3.0299-9.52-1.6899-14.36 1.62-4.25 5.83-7.1 10.33-7.45 5.37-0.08 10.72 3.68 11.66 9.16 8.27 34.94 25.19 68.88 52.76 92.53 25.57 22.44 59.7 34.59 93.67 34.01 41.51-0.15 82.77-18.1 110.87-48.73 27.08-28.82 40.79-68.67 40.78-107.91 0.27-12.72-0.8999-25.42-2.89-37.96-0.6399-4-1.84-7.96-1.6599-12.05 0.01-3.99 2.77-7.5701 6.25-9.3301 5.02-2.4299 11.81-0.6399 14.58 4.3201 2.17 3.96 2.3201 8.59 3.21 12.94 7.0299 41.23 3.5299 85.04-14.73 123.05z"/> <path d="m1437.3 88.97c2.84 9.39 5.9399 18.74 8.4 28.22 0.29-9.98-3.4-19.72-8.4-28.22z"/> </g> <path d="m1446.4 213.6c7.1001-1.72 15.08-1.28 21.6 2.33 12.68 5.66 20.01 19 22.99 32.04 0.4099 6.68 2.4 13.38 0.5499 20.02 0.12 6.23-2.49 11.94-5.0599 17.46-4.25 8.32-10.67 15.96-19.45 19.65-5.23 2.78-11.29 2.45-17.01 2.22-7.04-0.38-13.33-4.3-18.36-8.98-8.2899-7.95-13.64-18.89-14.93-30.28 0.0499-7.81-0.86-15.85 1.65-23.39 3.8-13.88 13.72-27.02 28.02-31.07m2.0601 1.1c-13.18 2.75-22.95 14.05-27.27 26.33-6.79 18.64-3.35 41.55 10.96 55.81 7.7001 7.67 19.37 11.6 29.99 8.45 13.45-3.85 22.77-16.31 26.41-29.35 5.3101-18.53 1.0601-40.71-13.71-53.82-7.09-6.29-17.02-9.4-26.38-7.42z" fill="#F2F2F2" stroke="#F2F2F2"/> <path d="m1448.5 214.7c9.36-1.98 19.29 1.13 26.38 7.42 14.77 13.11 19.02 35.29 13.71 53.82-3.64 13.04-12.96 25.5-26.41 29.35-10.62 3.15-22.29-0.78-29.99-8.45-14.31-14.26-17.75-37.17-10.96-55.81 4.32-12.28 14.09-23.58 27.27-26.33m-0.23 1.72c-14.58 3.59-24.56 17.46-27.39 31.66-0.3199 5.23-2.36 10.33-1.39 15.62 0.85 4.37 1.1901 8.87 2.49 13.15 1.09 3.91 3.8 7.06 5.4 10.74 2.85 6.17 8.08 11.38 14.66 13.38 5.5699 4.17 13.13 4.92 19.66 2.77 5.79-1.96 11.06-5.32 15.38-9.65 12.22-14.38 15.88-35.78 8.3-53.18-1.23-3.85-2.75-7.72-5.49-10.77-3.17-3.5-5.88-7.64-10.19-9.84-6.2398-3.98-14.2-5.55-21.43-3.88z" fill="#357DB3" stroke="#357DB3"/> <path d="m1566.4 214.65c5.02-2.43 11.81-0.64 14.58 4.32 2.17 3.96 2.3201 8.59 3.21 12.94 7.03 41.23 3.53 85.04-14.73 123.05-16.55 34.89-45.37 63.71-80.13 80.49-38.49 19-84.18 23.46-125.37 11.03-33.58-9.81-63.53-31.16-84.26-59.28-15.74-20.94-26.49-45.28-33.38-70.46-1.22-4.65-3.0299-9.52-1.6899-14.36 1.62-4.25 5.83-7.1 10.33-7.45 5.37-0.08 10.72 3.68 11.66 9.16 8.27 34.94 25.19 68.88 52.76 92.53 25.57 22.44 59.7 34.59 93.67 34.01 41.51-0.15 82.77-18.1 110.87-48.73 27.08-28.82 40.79-68.67 40.78-107.91 0.27-12.72-0.8999-25.42-2.89-37.96-0.6399-4-1.84-7.96-1.6599-12.05 0.0099-3.99 2.77-7.57 6.2499-9.33z" fill="#DF885D" stroke="#DF885D"/> <path d="m1448.3 216.42c7.23-1.67 15.19-0.1 21.43 3.88 4.3101 2.2 7.02 6.34 10.19 9.84 2.74 3.05 4.26 6.92 5.49 10.77 7.58 17.4 3.92 38.8-8.3 53.18-4.3199 4.33-9.59 7.69-15.38 9.65-6.5299 2.15-14.09 1.4-19.66-2.77-6.5801-2-11.81-7.21-14.66-13.38-1.6-3.68-4.3101-6.83-5.4-10.74-1.2999-4.28-1.64-8.78-2.49-13.15-0.97-5.29 1.0701-10.39 1.39-15.62 2.8299-14.2 12.81-28.07 27.39-31.66z" fill="#0879D5" stroke="#0879D5"/> <path d="m1315.3 219.37c7.6801-1.35 16.05-1.08 22.77 3.33 2.7101 2 5.7101 3.63 8.3101 5.8 1.59 2.13 3.08 4.35 4.9199 6.3 12.13 17.76 12.59 42.65 1.2101 60.9-4.13 6.39-9.6801 11.98-16.71 15.07-5.5599 3.8-12.58 2.49-18.89 2.45-9.64-1.54-17.72-8.2-23.17-16.03-10.86-16.27-12.03-38.35-3.33-55.83 1.84-5.33 6.08-9.16 9.48-13.49 4.55-3.69 9.6501-7.07 15.41-8.5m-0.3999 1.87c-8.7001 2.34-15.86 8.69-20.6 16.2-11.09 17.68-10.7 41.91 1 59.21 3.28 4.43 7.0901 8.9 12.23 11.19l0.08 0.01c10.53 7.48 25.66 5.18 35.13-3.04 13.62-11.62 18.6-31.13 15.58-48.37-1.8099-10.07-6.1699-20.18-14-27.03l-0.0499-0.62-0.7001-0.1c-7.31-7.33-18.7-10.35-28.67-7.45z" fill="#F2F2F2" stroke="#F2F2F2"/> <path d="m1314.9 221.24c9.97-2.9 21.36 0.12 28.67 7.45-2 0.04-3.6599-1.01-5.1799-2.13-4.4301-3.34-10.09-4.33-15.46-4.93-12.49-0.01-23.25 8.79-28.94 19.4-3.64 7.79-6.53 16.23-5.8201 24.95 0.52 5.02-0.09 10.21 1.66 15.03 1.9401 6.19 4.28 12.5 8.85 17.28 2.6901 3.42 6.3101 5.99 8.8501 9.55-5.14-2.29-8.9501-6.76-12.23-11.19-11.7-17.3-12.09-41.53-1-59.21 4.7402-7.51 11.9-13.86 20.6-16.2z" fill="#387FB3" stroke="#387FB3"/> <path d="m1294 241.03c5.6899-10.61 16.45-19.41 28.94-19.4 5.37 0.6 11.03 1.59 15.46 4.93 1.52 1.12 3.1799 2.17 5.1799 2.13l0.7001 0.1 0.0499 0.62c0.05 0.58 0.16 1.73 0.2101 2.31 14.52 15.54 16.72 40.37 7.26 59.07-3.8401 7.17-9.4 13.61-16.81 17.2-3.52 1.39-7.2 2.42-10.95 2.9-5.7201 0.79-10.8-2.76-16.42-3.04l-0.08-0.01c-2.54-3.56-6.16-6.13-8.8501-9.55-4.5699-4.78-6.9099-11.09-8.85-17.28-1.75-4.82-1.14-10.01-1.66-15.03-0.7098-8.72 2.1802-17.16 5.8202-24.95z" fill="#0879D5" stroke="#0879D5"/> <path d="m1344.3 229.41c7.8301 6.85 12.19 16.96 14 27.03 3.02 17.24-1.96 36.75-15.58 48.37-9.47 8.22-24.6 10.52-35.13 3.04 5.62 0.28 10.7 3.83 16.42 3.04 3.75-0.48 7.4299-1.51 10.95-2.9 7.41-3.59 12.97-10.03 16.81-17.2 9.46-18.7 7.2599-43.53-7.26-59.07-0.0501-0.58-0.1601-1.73-0.2101-2.31z" fill="#347CB1" stroke="#347CB1"/> <path d="m1431 503.46c38.44-0.03 76.71-10.32 110.18-29.17 4.04 4.09 7.1901 8.93 10.58 13.55 28.44 41.56 54.64 84.65 79.05 128.69-2-0.08-4-0.32-5.89-0.9301 0.53-0.41 1.5901-1.24 2.1201-1.65-6.6201-15.06-16.6-28.33-24.15-42.91-2.8-4.87-6.38-9.2599-8.74-14.38-6-10.18-12.75-19.92-18.68-30.15-3.23-5.93-7.86-10.93-11.05-16.88-5.95-10.45-13.74-19.66-20.24-29.73-1.2799-2.14-3.8999-3.43-6.13-1.88-8.84 4.73-18.05 8.71-27.25 12.66-18.12 6.12-36.66 11.66-55.82 13.05-9.27 1.57-18.7 1.25-28.06 1.24-6.34-0.31-12.75 0.25-19-1.07-3.9099-0.78-7.9199-0.76-11.86-1.16-21.25-3.88-42.33-9.56-61.88-18.91-2.6399-1.62-5.2699 0.51-7.0599 2.34-17.76 18.26-33.29 38.66-46.33 60.54-1.0901 1.68-2.3301 3.2599-3.64 4.78l-0.25-1.58c11.81-20.29 25.8-39.29 41.38-56.85 4.01-4.41 8.3199-8.56 12.68-12.63 31.07 15.04 65.5 23.1 100.04 23.03z" fill="#C754A7" stroke="#C754A7"/> <path d="m1538.1 478.02c2.2301-1.55 4.8501-0.26 6.13 1.88 6.5 10.07 14.29 19.28 20.24 29.73 3.1901 5.95 7.8201 10.95 11.05 16.88 5.9301 10.23 12.68 19.97 18.68 30.15 2.36 5.1201 5.9399 9.51 8.74 14.38 7.5499 14.58 17.53 27.85 24.15 42.91-0.53 0.41-1.5901 1.24-2.1201 1.65-6.72-2.56-14.02-1.93-20.98-3.2-7.35 0.15-14.99-0.95-21.97 1.77-8.17 0.36-15.97 3.11-23.39 6.35-4.9399 1.96-9.73 4.37-13.79 7.83-18.8 11.57-31.98 33.12-31.21 55.48l-0.0399-0.01c-1.4601-0.67-2.9801-1.24-4.5801-1.06-95.15-0.02-190.29-0.02-285.44-0.01-0.41-1.76-0.8201-3.51-1.15-5.27 13.24-44.39 30.9-87.65 54.53-127.57l0.25 1.58c1.3099-1.52 2.5499-3.1 3.64-4.78 13.04-21.88 28.57-42.28 46.33-60.54 1.79-1.83 4.42-3.96 7.0599-2.34 19.55 9.35 40.63 15.03 61.88 18.91 3.9401 0.4 7.9501 0.38 11.86 1.16 6.25 1.32 12.66 0.76 19 1.07 9.3601 0.01 18.79 0.33 28.06-1.24 19.16-1.39 37.7-6.93 55.82-13.05 9.2001-3.95 18.41-7.93 27.25-12.66z" fill="#DB38B9" stroke="#DB38B9"/> <path d="m1582 614.17c6.98-2.72 14.62-1.62 21.97-1.77 6.9601 1.27 14.26 0.64 20.98 3.2 1.89 0.61 3.89 0.85 5.89 0.9301 2.4601 1.66 5.37 2.46 8.1001 3.6299 11.08 4.66 21.23 11.68 29.24 20.67 10.27 11.78 17.14 27.21 16.44 43.04-0.13 3.03-0.2999 6.09 0.21 9.11-2.3899 4.44-3.0699 9.55-5.4399 14.01-2.98 6.44-6.77 12.52-11.74 17.62-3.66 4.71-8.17 8.68-13.21 11.85-4.66 2.84-8.76 6.71-14.03 8.42-5.64 1.74-11.27 3.49-16.82 5.48-8.0499 2.01-16.34 2.28-24.56 2.86-12.78-0.5-25.58-2.67-37.53-7.3199-8.0699-3.14-15.52-7.69-22.33-12.99-5.2201-4.25-9.89-9.19-13.84-14.63-6.09-8.6201-10.2-18.66-11.47-29.16-0.14-1.77-0.21-3.54-0.25-5.29-0.77-22.36 12.41-43.91 31.21-55.48 4.0599-3.46 8.85-5.87 13.79-7.83 7.42-3.2401 15.22-5.9901 23.39-6.3501m7.53 15.53c-11.29 1.38-22.46 4.65-32.21 10.58-12.15 7.25-22.45 18.73-25.61 32.8-3.4099 13.39 0.99 27.99 9.8601 38.34 11.21 13.57 28.28 21.12 45.42 23.65 19.86 2.55 41.03-1.14 57.68-12.68 13.27-8.91 23.4-23.97 22.99-40.38-0.01-16.16-10.2-30.7-23.24-39.47-15.91-10.91-35.88-14.77-54.89-12.84z" fill="#DF885D" stroke="#DF885D"/> <path d="m1080.8 622.79c17.5-8 37.26-10.14 56.24-7.75 17.68 2.58 34.92 9.69 48.34 21.64 13.4 11.95 22.41 29.32 22.57 47.46-0.0601 2.9-0.2001 5.8-0.4301 8.69-0.9 5.74-2.53 11.39-5.17 16.58-2.2899 4.58-3.7999 9.7-7.46 13.45-3.92 3.79-7.52 7.94-12.05 11.04-12.61 11.64-29.52 17.15-46.08 20.24-13.4 1.27-26.94 0.68-40.1-2.14-9.22-2.87-18.26-6.44-26.48-11.55-4.86-3-9.35-6.58-13.38-10.62-2.36-2.33-4.5901-4.77-6.64-7.36-6.51-8.67-11.27-18.81-12.75-29.62-2.14-12.83 0.66-26.22 6.88-37.57 8.11-14.51 21.43-25.72 36.51-32.49m30.66 9.01c-7.98 1.07-15.84 3.15-23.21 6.37-13.86 6.19-26.34 16.99-31.72 31.49-5.46 13.68-2.39 29.79 6.38 41.39 9.48 12.57 23.95 20.72 39.1 24.38 21.18 5.03 44.53 2.15 63.21-9.28 13.86-8.59 25.31-23.28 25.57-40.12 0.89-15.16-7.59-29.51-19.22-38.69-16.76-13.31-39.11-18-60.11-15.54z" fill="#DE885D" stroke="#DE885D"/> <path d="m1589.5 629.7c19.01-1.93 38.98 1.93 54.89 12.84 13.04 8.77 23.23 23.31 23.24 39.47 0.41 16.41-9.72 31.47-22.99 40.38-16.65 11.54-37.82 15.23-57.68 12.68-17.14-2.53-34.21-10.08-45.42-23.65-8.8701-10.35-13.27-24.95-9.8601-38.34 3.16-14.07 13.46-25.55 25.61-32.8 9.7501-5.93 20.92-9.2 32.21-10.58z" fill="#FEE7C5" stroke="#FEE7C5"/> <path d="m1111.4 631.8c21-2.46 43.35 2.23 60.11 15.54 11.63 9.18 20.11 23.53 19.22 38.69-0.26 16.84-11.71 31.53-25.57 40.12-18.68 11.43-42.03 14.31-63.21 9.28-15.15-3.66-29.62-11.81-39.1-24.38-8.77-11.6-11.84-27.71-6.38-41.39 5.38-14.5 17.86-25.3 31.72-31.49 7.3701-3.22 15.23-5.3 23.21-6.37z" fill="#FEE7C5" stroke="#FEE7C5"/> <path d="m1222.4 677.48c0.33 1.76 0.74 3.51 1.15 5.27 95.15-0.01 190.29-0.01 285.44 0.01 1.6-0.18 3.12 0.39 4.5801 1.06-55.52 0.42-111.06 0.06-166.58 0.18-42.12 0.14-84.24-0.33-126.35 0.35 0.04-0.6 0.12-1.8 0.16-2.39 0.5601-1.49 1.0801-2.99 1.6001-4.48z" fill="#C452AB" stroke="#C452AB"/> <path d="m499.28 133.64c1.99-5.57 2.66-11.48 3.74-17.27 34.73 13.35 66.36 34.7 91.6 62.05 37.07 39.74 60.05 92.36 63.85 146.59 0.3101 9.31 1.44 18.63 0.44 27.94-1.3199 36.43-11.31 72.47-28.54 104.57-16.25 30.57-39.49 57.16-66.71 78.45 0.03 0.46 0.1 1.4 0.14 1.86-3.64-5.14-6.62-10.96-11.91-14.67 29.2-21.8 52.95-50.86 68.5-83.82 16.09-33.55 23.3-71.21 21.3-108.34-1.77-36.8-13.04-73.09-32.16-104.57-20.23-33.48-49.37-61.51-83.57-80.48-8.66-4.57-17.33-9.34-26.68-12.31z" fill="#DE885D" stroke="#DE885D"/> <path d="m499.28 133.64c9.35 2.97 18.02 7.74 26.68 12.31 34.2 18.97 63.34 47 83.57 80.48 19.12 31.48 30.39 67.77 32.16 104.57 2 37.13-5.21 74.79-21.3 108.34-15.55 32.96-39.3 62.02-68.5 83.82-30.73 23.29-67.63 38.34-105.87 43.22-45.68 6.06-93.28-2.25-133.96-24-28.87-15-54.28-36.56-74.03-62.4-36.97-47.56-53.18-110.49-44.08-170.01 3.11-22.13 9.92-43.62 19.36-63.84 3.73 0.15 7.97 0.68 11.15-1.72 34.92-24.09 69.92-48.06 104.84-72.15 3.69-2.49 7.16-5.71 11.75-6.37 17.36-4.03 34.71-8.16 52.1-12.07 34.25-4.86 68.54-9.57 102.79-14.39 2.37-0.58 2.27-3.97 3.34-5.79m-27.91 101.85c-6.7 1.65-13.1 4.95-17.78 10.09-9.05 9.46-13.84 22.44-14.23 35.42 0.2 12.02 2.71 24.62 10.5 34.15 5.89 8.99 16.38 14.67 27.07 15.21 9.65-0.84 20-4.24 26.01-12.29 6.73-7.12 9.82-16.7 12.02-26.04 0.65-6.68 0.4-13.44-0.18-20.12-0.14-3.44-1.83-6.5-3-9.64-3.77-10.16-10.79-19.65-20.8-24.28-6.18-2.45-13.01-4.55-19.61-2.5m105.11 25.1c-3.05 1.43-5.41 4.19-6.27 7.45-1.02 2.92 0.13 5.96 0.53 8.89 4.73 25.01 5.4 50.94 0.64 76.01-4.16 20.72-12.07 40.8-24.15 58.2-19.02 28.02-48.01 48.78-80.3 58.73-38.31 12.04-81.83 8.39-116.61-12.13-15.34-8.73-28.68-20.73-39.66-34.49-17.12-21.44-28.04-47.25-34.36-73.8-1.85-8.79-14.76-11.28-19.94-4.08-4.49 5.37-1.43 12.5 0.11 18.39 9.37 34.67 26.99 67.66 53.49 92.23 25.07 23.6 57.92 38.48 92.08 42.37 45.69 5.37 93.3-8.32 129.2-37.07 27.7-21.83 48.24-52.49 58.07-86.35 10.36-34.35 10.17-71.22 3.04-106.18-1.06-7-9.57-11.29-15.87-8.17m-231.46 18.66c-7.46 3.63-13.48 9.86-17.48 17.07-6.93 12.92-8.92 28.61-4.76 42.73 3.5 14 13.63 26.75 27.52 31.45 7.71 1.73 16.13 0.88 23.07-3.04 10.98-5.41 17.79-16.63 21.13-28.05 1.44-7.72 2.74-15.65 1.53-23.49l-1.45-0.39c-0.03-0.22-0.09-0.65-0.12-0.87 0.88-1.74 0.98-3.73 0.41-5.58-1.86-6.28-4.51-12.35-8.13-17.82-3.72-4.31-7.77-8.58-12.95-11.14-8.67-4.99-19.82-5.34-28.77-0.87z" fill="#FEE7C5" stroke="#FEE7C5"/> <path d="m458.92 87.81c-13.39-11.73-26.74-23.5-39.98-35.4-14.34-12.4-28.08-25.51-42.77-37.48 1.2 6.4701 3.38 12.72 5.03 19.08 1.33 4.6799 2.65 9.35 4 14.02 0.59 2.33 1.22 4.6499 1.99 6.9299 0.53 2.05 1.11 4.0901 1.65 6.14 3.1 10.52 5.8 21.15 9.06 31.62-1.34-0.1-2.74-0.02-3.91-0.76-35.19-19.18-70.45-38.23-105.66-57.37-2.91-2.1301-6.2-3.6401-9.52-4.9801 2.41 4.9801 5.38 9.84 9.06 13.97 9.62 15.42 19.98 30.44 29.87 45.72 0.32 0.84 0.96 2.53 1.28 3.3699-25.34-0.0999-50.69-0.1399-76.02-0.6099-3.02 0.0699-6.01-0.3701-9.02-0.3201-20.71 0.04-41.43-0.52-62.14-0.23 0.93 0.99 1.95 1.87 3.09 2.62 16.19 10.14 32.5 20.09 48.66 30.27 0.79 0.66 2.18 1.0299 2.15 2.2799-6.77 2.5701-13.88 4.22-20.76 6.51-4.05 1.1001-7.95 2.67-12.04 3.5901l-0.75 0.45c-17.14 5.03-34.15 10.53-51.29 15.59-5.69 1.97-11.63 3.3398-17.13 5.8199 7.29 1.5199 14.89 1.24 22.24 2.5099 25.05 1.9801 50.03 4.6702 75.07 6.77 6.29 1.01 12.77 0.3401 18.98 1.99-1.26 1.1401-2.6 2.1702-4.04 3.05-21.95 14-43.84 28.09-65.83 42.03-10.04 6.52-20.32 12.76-30.15 19.53-3.55 1.54-6.6 3.95-9.96 5.84-1.39 0.62-2.23 1.91-3.12 3.08 0.42 0 1.25 0.02 1.67 0.02 7.92-0.08 15.84 0.71 23.76 0.23 14.16 1.25 28.42 0.3 42.57 1.72 6.11 0.36 12.26-0.02 18.35 0.72 3.73 0.15 7.97 0.68 11.15-1.72 34.92-24.09 69.92-48.06 104.84-72.15 3.69-2.49 7.16-5.71 11.75-6.37 17.36-4.03 34.71-8.16 52.1-12.07 34.25-4.8601 68.54-9.5701 102.79-14.39 2.37-0.58 2.27-3.97 3.34-5.7899 1.99-5.5699 2.66-11.48 3.74-17.27 0.7-10.15 2.69-20.15 3.53-30.29 1.44-11.66 2.55-23.35 3.79-35.03 0.55-9.8701 2.39-19.67 2.19-29.58-17.84 22.14-35.72 44.25-53.61 66.34zm-175.03-52.86c0.5126 0.85 1.0231 1.7058 1.5048 2.5764-0.4817-0.8706-0.9923-1.7265-1.5048-2.5764z" fill="#D5A401" stroke="#D5A401"/> <path d="m471.37 235.49c6.6-2.05 13.43 0.05 19.61 2.5 10.01 4.63 17.03 14.12 20.8 24.28 1.17 3.14 2.86 6.2 3 9.64 0.58 6.68 0.83 13.44 0.18 20.12-2.2 9.34-5.29 18.92-12.02 26.04-6.01 8.05-16.36 11.45-26.01 12.29-10.69-0.54-21.18-6.22-27.07-15.21-7.79-9.53-10.3-22.13-10.5-34.15 0.39-12.98 5.18-25.96 14.23-35.42 4.68-5.14 11.08-8.44 17.78-10.09m-1.08 1.93c-11.06 2.72-19.49 11.69-24.19 21.74-5.6 12.02-6.4 26.02-3.01 38.76 3.28 11.69 10.71 22.9 22.03 28.07 8.65 4.05 19.26 3.54 27.46-1.39 7.74-4.46 13.4-11.86 16.94-19.95 4.78-11.23 5.58-24.01 2.76-35.83-2.61-10.47-8.4-20.49-17.38-26.73-7.05-4.93-16.23-7.01-24.61-4.67z" fill="#F2F2F2" stroke="#F2F2F2"/> <path d="m470.29 237.42c8.38-2.34 17.56-0.26 24.61 4.67 8.98 6.24 14.77 16.26 17.38 26.73 2.8199 11.82 2.02 24.6-2.76 35.83-3.54 8.09-9.2 15.49-16.94 19.95-8.2 4.93-18.81 5.44-27.46 1.39-11.32-5.17-18.75-16.38-22.03-28.07-3.39-12.74-2.59-26.74 3.01-38.76 4.7-10.05 13.13-19.02 24.19-21.74m6.95 1.01c-10.2-0.3-20.02 5.9-25.35 14.4-7.17 9.38-9.66 21.56-9.27 33.16 0.07 6.23 2.28 12.12 4.36 17.9 4.06 9.58 11.41 18.42 21.61 21.64 8.49 4.05 18.47 0.82 25.89-4.08 8.43-6.48 14.05-16.21 16.56-26.47 0.34-3.35 0.77-6.68 1.38-9.99 0.54-14.39-4.81-29.1-15.16-39.24-5.67-4.46-12.58-8.04-20.02-7.32z" fill="#367DB3" stroke="#367DB3"/> <path d="m477.24 238.43c7.44-0.72 14.35 2.86 20.02 7.32 10.35 10.14 15.7 24.85 15.16 39.24-0.61 3.31-1.04 6.64-1.38 9.99-2.51 10.26-8.13 19.99-16.56 26.47-7.42 4.9-17.4 8.13-25.89 4.08-10.2-3.22-17.55-12.06-21.61-21.64-2.08-5.78-4.29-11.67-4.36-17.9-0.39-11.6 2.1-23.78 9.27-33.16 5.33-8.5 15.15-14.7 25.35-14.4z" fill="#0879D5" stroke="#0879D5"/> <path d="m194.96 245.41c6.11 0.36 12.26-0.02 18.35 0.72-9.44 20.22-16.25 41.71-19.36 63.84-9.1 59.52 7.11 122.45 44.08 170.01 19.75 25.84 45.16 47.4 74.03 62.4-5.32 3.09-10.11 7.1-14.54 11.37-0.19-0.09-0.57-0.26-0.76-0.34-51.59-28.87-91.36-77.78-109.96-133.84-17.98-53.65-16.39-113.72 4.85-166.2 1.17-2.63 2.26-5.28 3.31-7.96z" fill="#DE885D" stroke="#DE885D"/> <path d="m576.48 260.59c6.3-3.12 14.81 1.17 15.87 8.17 7.13 34.96 7.32 71.83-3.04 106.18-9.83 33.86-30.37 64.52-58.07 86.35-35.9 28.75-83.51 42.44-129.2 37.07-34.16-3.89-67.01-18.77-92.08-42.37-26.5-24.57-44.12-57.56-53.49-92.23-1.54-5.89-4.6-13.02-0.11-18.39 5.18-7.2 18.09-4.71 19.94 4.08 6.32 26.55 17.24 52.36 34.36 73.8 10.98 13.76 24.32 25.76 39.66 34.49 34.78 20.52 78.3 24.17 116.61 12.13 32.29-9.95 61.28-30.71 80.3-58.73 12.08-17.4 19.99-37.48 24.15-58.2 4.76-25.07 4.09-51-0.64-76.01-0.4-2.93-1.55-5.97-0.53-8.89 0.86-3.26 3.22-6.02 6.27-7.45z" fill="#DF885D" stroke="#DF885D"/> <path d="m345.02 279.25c8.95-4.47 20.1-4.12 28.77 0.87 5.18 2.56 9.23 6.83 12.95 11.14 3.62 5.47 6.27 11.54 8.13 17.82 0.57 1.85 0.47 3.84-0.41 5.58-1.77-10.45-6.31-20.67-14.09-28.03-6.2-5.87-14.68-9.6-23.32-9.02-11.33 0.51-21.17 8.15-26.96 17.52-11.69 18.99-10.39 45.57 4.13 62.72 6.34 7.4 15.89 12.49 25.81 11.89 9.65-0.36 18.44-5.92 24.31-13.38 8.93-11.39 12.22-26.62 10.24-40.83l1.45 0.39c1.21 7.84-0.09 15.77-1.53 23.49-3.34 11.42-10.15 22.64-21.13 28.05-6.94 3.92-15.36 4.77-23.07 3.04-13.89-4.7-24.02-17.45-27.52-31.45-4.16-14.12-2.17-29.81 4.76-42.73 4-7.21 10.02-13.44 17.48-17.07z" fill="#F2F2F2" stroke="#F2F2F2"/> <path d="m330.09 295.13c5.79-9.37 15.63-17.01 26.96-17.52 8.64-0.58 17.12 3.15 23.32 9.02 7.78 7.36 12.32 17.58 14.09 28.03 0.03 0.22 0.09 0.65 0.12 0.87 1.98 14.21-1.31 29.44-10.24 40.83-5.87 7.46-14.66 13.02-24.31 13.38-9.92 0.6-19.47-4.49-25.81-11.89-14.52-17.15-15.82-43.73-4.13-62.72m24.14-15.64c-11.15 1.8-19.42 10.54-24.85 19.88-5.87 12.21-6.64 26.43-3.47 39.49 0.92 4.61 3.8 8.4 5.62 12.65 5.82 10.27 17.54 17.34 29.45 16.57 9.7-0.8 17.78-7.14 23.65-14.51 4.6-7.04 7.63-15.12 8.51-23.49 0.03-6.58 0.92-13.41-1.42-19.72-1.71-9.85-7.81-18.45-15.34-24.79-5.95-5.28-14.39-7.25-22.15-6.08z" fill="#337AB1" stroke="#337AB1"/> <path d="m354.23 279.49c7.76-1.17 16.2 0.8 22.15 6.08 7.53 6.34 13.63 14.94 15.34 24.79 2.34 6.31 1.45 13.14 1.42 19.72-0.88 8.37-3.91 16.45-8.51 23.49-5.87 7.37-13.95 13.71-23.65 14.51-11.91 0.77-23.63-6.3-29.45-16.57-1.82-4.25-4.7-8.04-5.62-12.65-3.17-13.06-2.4-27.28 3.47-39.49 5.43-9.34 13.7-18.08 24.85-19.88z" fill="#0879D5" stroke="#0879D5"/> <path d="m446.02 566.38c38.24-4.88 75.14-19.93 105.87-43.22 5.29 3.71 8.27 9.53 11.91 14.67 8.58 11.8 15.95 24.45 23.11 37.15 17.97 32.37 32.8 66.4 45.68 101.08 0.24 0.51 0.74 1.54 0.99 2.05l-0.15 0.65c-0.31 1.32-0.62 2.65-0.92 3.98-135.52 0.09-271.04-0.06-406.55 0.1-1.97-0.06-3.92-0.26-5.86-0.5-3.22-9.1201-8.86-17.17-15.08-24.48 2.41-5.42 7.06-9.38 9.96-14.52 3.72-6.36 9.5-11.26 13.05-17.68 19.3-23.72 40.74-45.71 63.13-66.54 1.88-1.87 4.48-3.21 5.6-5.71 0.19 0.08 0.57 0.25 0.76 0.34 4.43-4.27 9.22-8.28 14.54-11.37 40.68 21.75 88.28 30.06 133.96 24z" fill="#FE5B00" stroke="#FE5B00"/> <path d="m740.95 617.38c27.17-4.3 56.79 1.69 78.12 19.66 13.96 11.55 23.63 28.68 24.48 46.96l0.02 1.03c-0.02 0.8199-0.05 2.46-0.06 3.28-0.09 2.86-0.1 5.73-0.06 8.6-0.31-1.3-0.61-2.6-0.9-3.89 0.37 6.28-1.4 12.46-4.44 17.92-4.56 10.32-11.49 19.7-20.42 26.66-7.1 4.69-14.51 8.97-22.2 12.59-8.99 2.87-18.14 5.6-27.61 6.21-9.1 0.5-18.23 0.31-27.28-0.77-4.93-1.13-9.83-2.38-14.66-3.87-6.98-2.03-13.42-5.45-19.69-9.06-7.27-4.37-13.5-10.25-19.07-16.59-9.87-11.93-15.63-27.54-14.74-43.09 0.65-14.43 7.17-28.19 16.82-38.79 13.32-14.73 32.24-23.71 51.69-26.85m5.53 16.4c-11.32 1.71-22.53 5.21-32.15 11.53-11.05 7.05-20.35 17.76-23.54 30.69-2.98 10.85-0.95 22.78 4.7401 32.41 6.35 10.88 16.64 19.03 28.05 24.11 20.74 9.36 45.27 9.56 66.33 1.11 13.01-5.39 25.02-14.49 31.57-27.18 6.16-11.09 6.62-24.95 1.68-36.57-5.68-13.49-17.49-23.61-30.66-29.49-14.28-6.69-30.47-8.29-46.02-6.61z" fill="#DE885D" stroke="#DE885D"/> <path d="m221.06 633.37c2.27-2.61 4.11-5.68 6.97-7.71-3.55 6.42-9.33 11.32-13.05 17.68-2.9 5.14-7.55 9.1-9.96 14.52 6.22 7.31 11.86 15.36 15.08 24.48 0.16 0.48 0.49 1.43 0.66 1.9 0.63 1.94 1.18 3.91 1.65 5.9 0.18 1.29 0.38 2.59 0.56 3.89 1.38 8.81 0.71 17.87-1.95 26.39-4 10.87-10.2 20.96-18.87 28.75-7.29 6.21-14.62 13.21-24.23 15.52-4.98 0.9-9.28 3.77-14.11 5.14-6.84 1.55-13.79 2.84-20.83 2.8-6.7-0.02-13.48 0.33-20.08-1.03-3.29-0.65-6.6-1.23-9.93-1.6-8.54-2.73-17.08-5.65-24.75-10.38-8.5-4.75-15.8-11.44-21.94-18.94-8.99-11.47-14.48-26.02-13.78-40.7 0.42-17.12 9.11-33.35 21.68-44.7 13.09-12.16 30.22-19.42 47.74-22.18 28.62-4.59 59.75 3.16 81.17 23.16 6.29-7.39 11.76-15.44 17.97-22.89m-93.69 16.21c-8.01 1.08-15.95 3-23.3 6.42-14.59 6.42-27.75 18.1-32.59 33.66-4.06 12.37-1.59 26.4 5.74 37.06 7.96 12.08 20.75 20.25 34.32 24.75 16.6 5.35 34.84 5.52 51.54 0.5 14.79-4.5699 28.78-13.48 37.01-26.86 6.33-10.3 8.41-23.28 4.75-34.89-3.92-13.43-14.28-24.13-26.22-30.95-15.43-8.84-33.71-11.52-51.25-9.69z" fill="#DE885D" stroke="#DE885D"/> <path d="m746.48 633.78c15.55-1.6801 31.74-0.08 46.02 6.61 13.17 5.88 24.98 16 30.66 29.49 4.94 11.62 4.48 25.48-1.68 36.57-6.55 12.69-18.56 21.79-31.57 27.18-21.06 8.45-45.59 8.25-66.33-1.11-11.41-5.08-21.7-13.23-28.05-24.11-5.69-9.6299-7.72-21.56-4.7401-32.41 3.19-12.93 12.49-23.64 23.54-30.69 9.6201-6.32 20.83-9.82 32.15-11.53z" fill="#FEE7C5" stroke="#FEE7C5"/> <path d="m127.37 649.58c17.54-1.83 35.82 0.85 51.25 9.69 11.94 6.82 22.3 17.52 26.22 30.95 3.66 11.61 1.58 24.59-4.75 34.89-8.23 13.38-22.22 22.29-37.01 26.86-16.7 5.02-34.94 4.85-51.54-0.5-13.57-4.5-26.36-12.67-34.32-24.75-7.33-10.66-9.8-24.69-5.74-37.06 4.84-15.56 18-27.24 32.59-33.66 7.35-3.42 15.29-5.34 23.3-6.42z" fill="#FEE7C5" stroke="#FEE7C5"/> <path d="m633.43 678.76c0.99 1.72 1.61 3.6 2.14 5.52-23.53-0.48-47.07-0.0601-70.61-0.22-108.33 0.03-216.66-0.01-324.98 0.03-6.41 0.04-12.82 0.0099-19.22 0.15-0.17-0.47-0.5-1.42-0.66-1.9 1.94 0.24 3.89 0.44 5.86 0.5 135.51-0.16 271.03-0.01 406.55-0.1 0.3-1.33 0.61-2.66 0.92-3.98z" fill="#DB702F" stroke="#DB702F"/> </g> </svg>